<svg width="1600" height="1000" viewBox="0 0 1600 1000" fill="none" xmlns="http://www.w3.org/2000/svg">
  <rect width="1600" height="1000" rx="36" fill="#0A111C"/>
  <rect x="48" y="48" width="1504" height="904" rx="30" stroke="#1C2A43"/>
  <rect x="84" y="124" width="620" height="768" rx="28" fill="#0F1727" stroke="#243551"/>
  <rect x="736" y="124" width="780" height="220" rx="28" fill="#0F1727" stroke="#243551"/>
  <rect x="736" y="380" width="780" height="512" rx="28" fill="#0F1727" stroke="#243551"/>
  <rect x="124" y="170" width="220" height="22" rx="11" fill="#EEF3FB"/>
  <rect x="124" y="214" width="420" height="12" rx="6" fill="#53647E"/>
  <rect x="124" y="248" width="360" height="12" rx="6" fill="#3C4C65"/>
  <rect x="124" y="322" width="540" height="210" rx="24" fill="url(#g1)"/>
  <rect x="124" y="570" width="540" height="122" rx="22" fill="#111D30" stroke="#263754"/>
  <rect x="124" y="720" width="540" height="122" rx="22" fill="#111D30" stroke="#263754"/>
  <rect x="776" y="172" width="260" height="22" rx="11" fill="#EEF3FB"/>
  <rect x="776" y="220" width="676" height="72" rx="24" fill="#111D30" stroke="#263754"/>
  <rect x="776" y="428" width="676" height="120" rx="24" fill="#111D30" stroke="#263754"/>
  <rect x="776" y="576" width="676" height="120" rx="24" fill="#111D30" stroke="#263754"/>
  <rect x="776" y="724" width="676" height="120" rx="24" fill="#111D30" stroke="#263754"/>
  <defs>
    <linearGradient id="g1" x1="124" y1="322" x2="664" y2="532" gradientUnits="userSpaceOnUse">
      <stop stop-color="#16305E"/>
      <stop offset="1" stop-color="#0F1727"/>
    </linearGradient>
  </defs>
</svg>
