<svg width="1600" height="1000" viewBox="0 0 1600 1000" fill="none" xmlns="http://www.w3.org/2000/svg">
  <rect width="1600" height="1000" rx="36" fill="#09101B"/>
  <rect x="42" y="36" width="1516" height="928" rx="28" stroke="#1D2C47"/>
  <circle cx="115" cy="84" r="10" fill="#334155"/>
  <circle cx="149" cy="84" r="10" fill="#334155"/>
  <circle cx="183" cy="84" r="10" fill="#334155"/>
  <rect x="80" y="140" width="560" height="310" rx="28" fill="url(#paint0_radial)"/>
  <rect x="92" y="154" width="536" height="282" rx="22" stroke="#233452"/>
  <rect x="96" y="500" width="688" height="370" rx="28" fill="#0E1624" stroke="#1C2A42"/>
  <rect x="132" y="542" width="260" height="22" rx="11" fill="#E5ECF8" fill-opacity="0.95"/>
  <rect x="132" y="582" width="520" height="12" rx="6" fill="#51617C"/>
  <rect x="132" y="620" width="460" height="12" rx="6" fill="#334155"/>
  <rect x="132" y="684" width="168" height="88" rx="18" fill="#121E31" stroke="#263754"/>
  <rect x="324" y="684" width="168" height="88" rx="18" fill="#121E31" stroke="#263754"/>
  <rect x="516" y="684" width="168" height="88" rx="18" fill="#121E31" stroke="#263754"/>
  <rect x="844" y="140" width="660" height="730" rx="28" fill="#0E1624" stroke="#1C2A42"/>
  <rect x="884" y="194" width="260" height="24" rx="12" fill="#E5ECF8" fill-opacity="0.95"/>
  <rect x="884" y="256" width="576" height="70" rx="22" fill="#121E31" stroke="#263754"/>
  <rect x="884" y="348" width="576" height="70" rx="22" fill="#121E31" stroke="#263754"/>
  <rect x="884" y="440" width="576" height="70" rx="22" fill="#121E31" stroke="#263754"/>
  <rect x="884" y="560" width="160" height="162" rx="24" fill="#121E31" stroke="#263754"/>
  <rect x="1092" y="560" width="160" height="162" rx="24" fill="#121E31" stroke="#263754"/>
  <rect x="1300" y="560" width="160" height="162" rx="24" fill="#121E31" stroke="#263754"/>
  <circle cx="1325" cy="815" r="110" stroke="#20304D"/>
  <circle cx="1325" cy="815" r="82" stroke="#20304D"/>
  <circle cx="1325" cy="815" r="18" fill="#77A2FF"/>
  <defs>
    <radialGradient id="paint0_radial" cx="0" cy="0" r="1" gradientUnits="userSpaceOnUse" gradientTransform="translate(382 252) rotate(90) scale(198 278)">
      <stop stop-color="#111C2E"/>
      <stop offset="0.64" stop-color="#0D1523"/>
      <stop offset="1" stop-color="#09101B"/>
    </radialGradient>
  </defs>
</svg>
