<svg xmlns="http://www.w3.org/2000/svg" viewBox="0 0 390 720" width="390" height="720">
  <!-- Background -->
  <rect width="390" height="720" fill="#0a0e1a"/>

  <!-- Status bar -->
  <rect width="390" height="44" fill="#080c14"/>
  <text x="20" y="28" font-family="monospace" font-size="12" fill="#94a3b8">9:41</text>
  <text x="340" y="28" font-family="monospace" font-size="12" fill="#94a3b8">●●●</text>

  <!-- Header -->
  <rect width="390" height="64" y="44" fill="#0d1220"/>
  <text x="20" y="84" font-family="Arial, sans-serif" font-size="16" font-weight="600" fill="#f1f5f9">Transaction History</text>

  <!-- Filter tabs -->
  <rect x="20" y="122" width="350" height="36" rx="4" fill="#0d1220"/>
  <rect x="24" y="126" width="82" height="28" rx="3" fill="#0ea5e9" opacity="0.15"/>
  <text x="46" y="144" font-family="monospace" font-size="10" fill="#0ea5e9">ALL</text>
  <text x="136" y="144" font-family="monospace" font-size="10" fill="#475569">THIS WEEK</text>
  <text x="246" y="144" font-family="monospace" font-size="10" fill="#475569">THIS MONTH</text>

  <!-- Summary strip -->
  <rect x="20" y="172" width="350" height="60" rx="4" fill="#0d1220" stroke="#1e293b" stroke-width="1"/>
  <text x="36" y="196" font-family="monospace" font-size="9" fill="#475569" letter-spacing="1">TOTAL THIS MONTH</text>
  <text x="36" y="220" font-family="Arial, sans-serif" font-size="22" font-weight="700" fill="#f1f5f9">₱ 648.00</text>
  <text x="260" y="196" font-family="monospace" font-size="9" fill="#475569" letter-spacing="1">TRIPS</text>
  <text x="260" y="220" font-family="Arial, sans-serif" font-size="22" font-weight="700" fill="#0ea5e9">12</text>

  <!-- Section label -->
  <text x="20" y="260" font-family="monospace" font-size="9" fill="#475569" letter-spacing="2">TODAY</text>

  <!-- Transaction rows -->
  <!-- Row 1 -->
  <rect x="20" y="270" width="350" height="60" rx="4" fill="#0d1220" stroke="#1e293b" stroke-width="1"/>
  <rect x="20" y="270" width="4" height="60" rx="2" fill="#0ea5e9"/>
  <circle cx="52" cy="300" r="14" fill="#0ea5e9" opacity="0.1"/>
  <text x="44" y="305" font-family="monospace" font-size="14" fill="#0ea5e9">⬡</text>
  <text x="76" y="293" font-family="Arial, sans-serif" font-size="13" font-weight="600" fill="#f1f5f9">CCLEX Main Gate</text>
  <text x="76" y="311" font-family="monospace" font-size="10" fill="#475569">08:42 AM  ·  Auto-pay</text>
  <text x="320" y="296" font-family="Arial, sans-serif" font-size="14" font-weight="600" fill="#f1f5f9" text-anchor="end">₱ 72</text>
  <rect x="322" y="302" width="46" height="16" rx="3" fill="#22c55e" opacity="0.12"/>
  <text x="328" y="314" font-family="monospace" font-size="9" fill="#22c55e">PAID</text>

  <!-- Row 2 -->
  <rect x="20" y="338" width="350" height="60" rx="4" fill="#0d1220" stroke="#1e293b" stroke-width="1"/>
  <rect x="20" y="338" width="4" height="60" rx="2" fill="#0ea5e9"/>
  <circle cx="52" cy="368" r="14" fill="#0ea5e9" opacity="0.1"/>
  <text x="44" y="373" font-family="monospace" font-size="14" fill="#0ea5e9">⬡</text>
  <text x="76" y="361" font-family="Arial, sans-serif" font-size="13" font-weight="600" fill="#f1f5f9">CCLEX Main Gate</text>
  <text x="76" y="379" font-family="monospace" font-size="10" fill="#475569">07:10 AM  ·  Auto-pay</text>
  <text x="320" y="364" font-family="Arial, sans-serif" font-size="14" font-weight="600" fill="#f1f5f9" text-anchor="end">₱ 72</text>
  <rect x="322" y="370" width="46" height="16" rx="3" fill="#22c55e" opacity="0.12"/>
  <text x="328" y="382" font-family="monospace" font-size="9" fill="#22c55e">PAID</text>

  <!-- Section label -->
  <text x="20" y="422" font-family="monospace" font-size="9" fill="#475569" letter-spacing="2">YESTERDAY</text>

  <!-- Row 3 -->
  <rect x="20" y="432" width="350" height="60" rx="4" fill="#0d1220" stroke="#1e293b" stroke-width="1"/>
  <rect x="20" y="432" width="4" height="60" rx="2" fill="#0ea5e9"/>
  <circle cx="52" cy="462" r="14" fill="#0ea5e9" opacity="0.1"/>
  <text x="44" y="467" font-family="monospace" font-size="14" fill="#0ea5e9">⬡</text>
  <text x="76" y="455" font-family="Arial, sans-serif" font-size="13" font-weight="600" fill="#f1f5f9">North Luzon Expy</text>
  <text x="76" y="473" font-family="monospace" font-size="10" fill="#475569">06:15 PM  ·  Auto-pay</text>
  <text x="320" y="458" font-family="Arial, sans-serif" font-size="14" font-weight="600" fill="#f1f5f9" text-anchor="end">₱ 48</text>
  <rect x="322" y="464" width="46" height="16" rx="3" fill="#22c55e" opacity="0.12"/>
  <text x="328" y="476" font-family="monospace" font-size="9" fill="#22c55e">PAID</text>

  <!-- Row 4 -->
  <rect x="20" y="500" width="350" height="60" rx="4" fill="#0d1220" stroke="#1e293b" stroke-width="1"/>
  <rect x="20" y="500" width="4" height="60" rx="2" fill="#475569"/>
  <circle cx="52" cy="530" r="14" fill="#475569" opacity="0.1"/>
  <text x="44" y="535" font-family="monospace" font-size="14" fill="#475569">⬡</text>
  <text x="76" y="523" font-family="Arial, sans-serif" font-size="13" font-weight="600" fill="#f1f5f9">SCTEX Checkpoint</text>
  <text x="76" y="541" font-family="monospace" font-size="10" fill="#475569">08:30 AM  ·  Auto-pay</text>
  <text x="320" y="526" font-family="Arial, sans-serif" font-size="14" font-weight="600" fill="#f1f5f9" text-anchor="end">₱ 120</text>
  <rect x="322" y="532" width="46" height="16" rx="3" fill="#22c55e" opacity="0.12"/>
  <text x="328" y="544" font-family="monospace" font-size="9" fill="#22c55e">PAID</text>

  <!-- Row 5 -->
  <rect x="20" y="568" width="350" height="60" rx="4" fill="#0d1220" stroke="#1e293b" stroke-width="1"/>
  <rect x="20" y="568" width="4" height="60" rx="2" fill="#0ea5e9"/>
  <circle cx="52" cy="598" r="14" fill="#0ea5e9" opacity="0.1"/>
  <text x="44" y="603" font-family="monospace" font-size="14" fill="#0ea5e9">⬡</text>
  <text x="76" y="591" font-family="Arial, sans-serif" font-size="13" font-weight="600" fill="#f1f5f9">CCLEX Main Gate</text>
  <text x="76" y="609" font-family="monospace" font-size="10" fill="#475569">06:55 AM  ·  Auto-pay</text>
  <text x="320" y="594" font-family="Arial, sans-serif" font-size="14" font-weight="600" fill="#f1f5f9" text-anchor="end">₱ 72</text>
  <rect x="322" y="600" width="46" height="16" rx="3" fill="#22c55e" opacity="0.12"/>
  <text x="328" y="612" font-family="monospace" font-size="9" fill="#22c55e">PAID</text>

  <!-- Bottom nav -->
  <rect x="0" y="656" width="390" height="64" fill="#080c14" stroke="#1e293b" stroke-width="1"/>
  <text x="35" y="684" font-family="monospace" font-size="18" fill="#475569">⌂</text>
  <text x="32" y="700" font-family="monospace" font-size="9" fill="#475569">HOME</text>
  <text x="135" y="684" font-family="monospace" font-size="18" fill="#0ea5e9">↺</text>
  <text x="125" y="700" font-family="monospace" font-size="9" fill="#0ea5e9">HISTORY</text>
  <text x="235" y="684" font-family="monospace" font-size="18" fill="#475569">◎</text>
  <text x="225" y="700" font-family="monospace" font-size="9" fill="#475569">ROUTES</text>
  <text x="335" y="684" font-family="monospace" font-size="18" fill="#475569">◷</text>
  <text x="330" y="700" font-family="monospace" font-size="9" fill="#475569">PROFILE</text>
</svg>
